<?xml version="1.0" encoding="UTF-8" standalone="no"?>
<svg
   xmlns:sketch="http://www.bohemiancoding.com/sketch/ns"
   xmlns:dc="http://purl.org/dc/elements/1.1/"
   xmlns:cc="http://creativecommons.org/ns#"
   xmlns:rdf="http://www.w3.org/1999/02/22-rdf-syntax-ns#"
   xmlns:svg="http://www.w3.org/2000/svg"
   xmlns="http://www.w3.org/2000/svg"
   id="svg3406"
   y="0px"
   x="0px"
   version="1.1"
   viewBox="0 0 54 73.75">
  <metadata
     id="metadata3436">
    <rdf:RDF>
      <cc:Work
         rdf:about="">
        <dc:format>image/svg+xml</dc:format>
        <dc:type
           rdf:resource="http://purl.org/dc/dcmitype/StillImage" />
        <dc:title>30 - Soyuz (Solid)</dc:title>
      </cc:Work>
    </rdf:RDF>
  </metadata>
  <defs
     id="defs3434" />
  <title
     id="title3408">30 - Soyuz (Solid)</title>
  <desc
     id="desc3410">Created with Sketch.</desc>
  <g
     id="g3412"
     sketch:type="MSPage"
     fill-rule="evenodd"
     fill="none"
     stroke-width="1"
     stroke="none">
    <g
       id="g3414"
       fill="#000000"
       sketch:type="MSLayerGroup">
      <path
         id="path3416"
         sketch:type="MSShapeGroup"
         d="M53.329,32.238 C52.724,29.818 51.715,27.537 50.331,25.46 L49.36,24.005 C48.942,23.377 48.242,23.003 47.489,23.003 C46.735,23.003 46.035,23.377 45.617,24.005 L44.647,25.46 C43.262,27.537 42.253,29.818 41.648,32.238 C41.521,32.746 41.42,33.261 41.331,33.777 L38.675,32.117 C40.644,21.941 37.572,11.116 29.974,3.518 L27,0.544 L24.026,3.518 C16.432,11.112 13.359,21.93 15.329,32.115 L12.649,33.79 C12.559,33.269 12.457,32.75 12.329,32.238 C11.724,29.818 10.715,27.537 9.331,25.46 L8.36,24.005 C7.942,23.377 7.242,23.003 6.489,23.003 C5.735,23.003 5.035,23.377 4.617,24.005 L3.647,25.46 C2.262,27.537 1.253,29.818 0.648,32.238 C-0.126,35.337 -0.205,38.631 0.422,41.764 L1.669,48 L11.309,48 L11.997,44.556 L18.295,40.62 C18.449,40.918 18.584,41.222 18.748,41.517 C20.221,44.123 21,46.931 21,49.637 L21,50 L33,50 L33,49.637 C33,46.935 33.779,44.126 35.268,41.488 C35.427,41.203 35.556,40.908 35.705,40.62 L41.977,44.54 L42.669,48 L52.309,48 L53.556,41.764 C54.183,38.631 54.104,35.337 53.329,32.238 L53.329,32.238 Z M12.537,41.86 L12.556,41.764 C12.643,41.326 12.713,40.886 12.773,40.443 C12.792,40.306 12.805,40.168 12.821,40.029 C12.857,39.716 12.889,39.403 12.911,39.088 C12.922,38.941 12.93,38.793 12.937,38.645 C12.954,38.317 12.963,37.989 12.966,37.661 C12.966,37.542 12.968,37.424 12.967,37.306 C12.963,36.876 12.948,36.447 12.918,36.018 C12.917,36.006 12.918,35.993 12.917,35.981 L15.792,34.184 C16.207,35.754 16.754,37.298 17.417,38.81 L12.537,41.86 L12.537,41.86 Z M27,44 C24.794,44 23,42.206 23,40 C23,37.794 24.794,36 27,36 C29.206,36 31,37.794 31,40 C31,42.206 29.206,44 27,44 L27,44 Z M27,33 C24.794,33 23,31.206 23,29 C23,26.794 24.794,25 27,25 C29.206,25 31,26.794 31,29 C31,31.206 29.206,33 27,33 L27,33 Z M27,22 C23.691,22 21,19.309 21,16 C21,12.691 23.691,10 27,10 C30.309,10 33,12.691 33,16 C33,19.309 30.309,22 27,22 L27,22 Z M36.585,38.812 C37.25,37.301 37.797,35.756 38.212,34.187 L41.062,35.968 C41.03,36.413 41.015,36.859 41.011,37.306 C41.009,37.418 41.011,37.53 41.012,37.642 C41.014,37.976 41.023,38.309 41.04,38.643 C41.048,38.79 41.055,38.936 41.066,39.082 C41.089,39.399 41.12,39.714 41.157,40.028 C41.173,40.166 41.185,40.304 41.204,40.441 C41.264,40.884 41.334,41.326 41.422,41.764 L41.438,41.844 L36.585,38.812 L36.585,38.812 Z" />
      <path
         id="path3418"
         sketch:type="MSShapeGroup"
         d="M4,49 C3.448,49 3,49.448 3,50 L3,52 C3,52.552 3.448,53 4,53 C4.552,53 5,52.552 5,52 L5,50 C5,49.448 4.552,49 4,49" />
      <path
         id="path3420"
         sketch:type="MSShapeGroup"
         d="M9,49 C8.448,49 8,49.448 8,50 L8,52 C8,52.552 8.448,53 9,53 C9.552,53 10,52.552 10,52 L10,50 C10,49.448 9.552,49 9,49" />
      <path
         id="path3422"
         sketch:type="MSShapeGroup"
         d="M45,49 C44.448,49 44,49.448 44,50 L44,52 C44,52.552 44.448,53 45,53 C45.552,53 46,52.552 46,52 L46,50 C46,49.448 45.552,49 45,49" />
      <path
         id="path3424"
         sketch:type="MSShapeGroup"
         d="M50,49 C49.448,49 49,49.448 49,50 L49,52 C49,52.552 49.448,53 50,53 C50.552,53 51,52.552 51,52 L51,50 C51,49.448 50.552,49 50,49" />
      <path
         id="path3426"
         sketch:type="MSShapeGroup"
         d="M20.847,52 L19.847,59 L34.153,59 L33.153,52 L20.847,52 L20.847,52 Z M26,56 C26,56.552 25.552,57 25,57 C24.448,57 24,56.552 24,56 L24,55 C24,54.448 24.448,54 25,54 C25.552,54 26,54.448 26,55 L26,56 L26,56 Z M30,56 C30,56.552 29.552,57 29,57 C28.448,57 28,56.552 28,56 L28,55 C28,54.448 28.448,54 29,54 C29.552,54 30,54.448 30,55 L30,56 L30,56 Z" />
    </g>
  </g>
</svg>
